<?xml version="1.0" standalone="yes"?>

<svg version="1.1" viewBox="0.0 0.0 960.0 540.0" fill="none" stroke="none" stroke-linecap="square" stroke-miterlimit="10" xmlns="http://www.w3.org/2000/svg" xmlns:xlink="http://www.w3.org/1999/xlink"><clipPath id="p.0"><path d="m0 0l960.0 0l0 540.0l-960.0 0l0 -540.0z" clip-rule="nonzero"></path></clipPath><g clip-path="url(#p.0)"><path fill="#00ffff" d="m0 0l960.0 0l0 540.0l-960.0 0z" fill-rule="nonzero"></path><path fill="#000000" fill-opacity="0.0" d="m118.44095 122.48819l723.11816 0l0 295.02362l-723.11816 0z" fill-rule="nonzero"></path><path fill="#0000ff" d="m246.34375 315.88l-24.3125 -91.625l12.4375 0l13.9375 60.0625q2.25 9.4375 3.875 18.75q3.5 -14.6875 4.125 -16.9375l17.4375 -61.875l14.625 0l13.125 46.375q4.9375 17.25 7.125 32.4375q1.75 -8.6875 4.5625 -19.9375l14.375 -58.875l12.1875 0l-25.125 91.625l-11.6875 0l-19.3125 -69.8125q-2.4375 -8.75 -2.875 -10.75q-1.4375 6.3125 -2.6875 10.75l-19.4375 69.8125l-12.375 0zm105.4375 0l0 -91.625l61.8125 0l0 10.8125l-49.6875 0l0 28.375l43.0 0l0 10.8125l-43.0 0l0 41.625l-12.125 0zm78.1875 0l0 -91.625l61.8125 0l0 10.8125l-49.6875 0l0 28.375l43.0 0l0 10.8125l-43.0 0l0 41.625l-12.125 0zm97.625 26.9375q-9.3125 -11.75 -15.75 -27.5q-6.4375 -15.75 -6.4375 -32.625q0 -14.875 4.8125 -28.5q5.625 -15.8125 17.375 -31.5l8.0625 0q-7.5625 13.0 -10.0 18.5625q-3.8125 8.625 -6.0 18.0q-2.6875 11.6875 -2.6875 23.5q0 30.0625 18.6875 60.0625l-8.0625 0zm28.5 0l-8.0625 0q18.6875 -30.0 18.6875 -60.0625q0 -11.75 -2.6875 -23.3125q-2.125 -9.375 -5.9375 -18.0q-2.4375 -5.625 -10.0625 -18.75l8.0625 0q11.75 15.6875 17.375 31.5q4.8125 13.625 4.8125 28.5q0 16.875 -6.46875 32.625q-6.46875 15.75 -15.71875 27.5zm65.9375 -65.1875q4.8125 -0.125 7.84375 -2.59375q3.03125 -2.46875 4.03125 -6.78125q1.0 -4.3125 1.0625 -14.75q0.0625 -10.4375 0.375 -13.75q0.5625 -5.25 2.09375 -8.4375q1.53125 -3.1875 3.78125 -5.09375q2.25 -1.90625 5.75 -2.90625q2.375 -0.625 7.75 -0.625l3.5 0l0 9.8125l-1.9375 0q-6.5 0 -8.625 2.34375q-2.125 2.34375 -2.125 10.46875q0 16.375 -0.6875 20.6875q-1.125 6.6875 -3.84375 10.3125q-2.71875 3.625 -8.53125 6.4375q6.875 2.875 9.96875 8.78125q3.09375 5.90625 3.09375 19.34375q0 12.1875 0.25 14.5q0.5 4.25 2.53125 5.9375q2.03125 1.6875 7.96875 1.6875l1.9375 0l0 9.8125l-3.5 0q-6.125 0 -8.875 -1.0q-4.0 -1.4375 -6.625 -4.65625q-2.625 -3.21875 -3.40625 -8.15625q-0.78125 -4.9375 -0.84375 -16.1875q-0.0625 -11.25 -1.0625 -15.5625q-1.0 -4.3125 -4.03125 -6.8125q-3.03125 -2.5 -7.84375 -2.625l0 -10.1875zm78.3125 0l0 10.1875q-4.8125 0.125 -7.84375 2.625q-3.03125 2.5 -4.03125 6.78125q-1.0 4.28125 -1.0625 14.71875q-0.0625 10.4375 -0.375 13.75q-0.5625 5.3125 -2.09375 8.46875q-1.53125 3.15625 -3.78125 5.0625q-2.25 1.90625 -5.75 2.90625q-2.375 0.6875 -7.75 0.6875l-3.5 0l0 -9.8125l1.9375 0q6.5 0 8.625 -2.34375q2.125 -2.34375 2.125 -10.53125q0 -15.625 0.5625 -19.8125q1.0 -6.9375 4.0 -11.09375q3.0 -4.15625 8.5 -6.46875q-7.1875 -3.4375 -10.125 -9.09375q-2.9375 -5.65625 -2.9375 -19.09375q0 -12.1875 -0.3125 -14.5625q-0.4375 -4.1875 -2.46875 -5.84375q-2.03125 -1.65625 -7.96875 -1.65625l-1.9375 0l0 -9.8125l3.5 0q6.125 0 8.875 1.0q4.0 1.375 6.625 4.625q2.625 3.25 3.40625 8.1875q0.78125 4.9375 0.84375 16.1875q0.0625 11.25 1.0625 15.53125q1.0 4.28125 4.03125 6.78125q3.03125 2.5 7.84375 2.625zm15.0 -15.3125l0 -12.8125l12.8125 0l0 12.8125l-12.8125 0zm0 53.5625l0 -12.8125l12.8125 0l0 12.8125q0 7.0625 -2.5 11.40625q-2.5 4.34375 -7.9375 6.71875l-3.125 -4.8125q3.5625 -1.5625 5.25 -4.59375q1.6875 -3.03125 1.875 -8.71875l-6.375 0z" fill-rule="nonzero"></path></g></svg>

